<svg width="379" height="209" viewBox="0 0 379 209" fill="none" xmlns="http://www.w3.org/2000/svg">
<path d="M189.44 208.974C293.659 208.974 378.145 124.535 378.145 20.3737C378.145 -83.7871 293.659 -168.226 189.44 -168.226C85.2204 -168.226 0.734009 -83.7871 0.734009 20.3737C0.734009 124.535 85.2204 208.974 189.44 208.974Z" fill="#1D1E1D"/>
<path d="M326.494 74.8681C356.597 -0.749395 319.666 -86.4389 244.006 -116.525C168.346 -146.611 82.6085 -109.7 52.5058 -34.0825C22.4031 41.535 59.3344 127.225 134.994 157.31C210.654 187.396 296.392 150.486 326.494 74.8681Z" fill="#F7F7F7"/>
<path fill-rule="evenodd" clip-rule="evenodd" d="M198.417 103.934V70.4492L162.434 55.3704L181.32 35.5289L156.568 11.7772L149.549 26.3152L149.818 12.3388L118.451 23.1747L119.258 41.394L124.586 39.8965L130.124 104.184L152.241 100.669L152.202 79.2053L198.417 103.934Z" fill="#1D1E1D"/>
<path fill-rule="evenodd" clip-rule="evenodd" d="M124.354 27.8513L143.412 21.7158L144.586 42.9509L158.625 21.6326L172.337 35.7547L153.163 57.6137L192.627 74.5227V93.9691L146.778 69.1567L146.855 95.1546L134.989 96.9016L129.931 31.8654L124.584 33.3629L124.354 27.8513Z" fill="white"/>
<path fill-rule="evenodd" clip-rule="evenodd" d="M268.86 14.978H248.09L247.494 18.6593H225.646L215.434 86.1914L240.359 90.4342L241.724 80.7422L248.244 93.7411L252.206 85.4426L253.667 99.0655L281.919 104.452L268.86 14.978Z" fill="#1D1E1D"/>
<path fill-rule="evenodd" clip-rule="evenodd" d="M253.553 21.2206H264.131L274.843 96.448L259.226 93.869L255.072 64.1067L249.207 80.5165L240.398 60.0094H240.302L236.821 83.7818L222.186 81.0157L230.898 24.6939H245.706L249.399 46.5321L253.553 21.2206Z" fill="white"/>
<path fill-rule="evenodd" clip-rule="evenodd" d="M295.306 21.1351L326.558 28.5601L328.885 41.0391L331.404 29.7872L358.002 36.7546L332.462 119.969L312.865 113.292L312.711 104.952L293.902 102.103L300.249 41.0391L295.537 39.8952L295.306 21.1351Z" fill="#1D1E1D"/>
<path fill-rule="evenodd" clip-rule="evenodd" d="M300.865 28.9336L321.231 33.3636L328.097 68.5127L335.117 37.0033L350.618 40.7262L328.789 112.231L317.943 108.716L317 65.497L311.538 98.8366L299.711 96.8192L305.019 36.2754L300.557 34.9859L300.865 28.9336Z" fill="white"/>
<path fill-rule="evenodd" clip-rule="evenodd" d="M292.306 92.4928C285.555 95.2382 278.382 94.9262 272.612 91.5985C267.266 88.5411 263.535 83.2376 262.093 76.6861C259.208 63.6248 267.189 48.7124 279.882 43.4504C286.709 40.6635 293.941 40.9962 299.749 44.3448C305.037 47.3813 308.73 52.5601 310.134 58.9244C313.076 72.1729 305.095 87.2308 292.306 92.4928Z" fill="#1D1E1D"/>
<path fill-rule="evenodd" clip-rule="evenodd" d="M305.187 60.1331C302.88 49.6508 292.533 44.3888 281.917 48.7148C271.628 52.9785 264.877 65.0207 267.204 75.503C269.589 86.3182 279.84 91.5593 290.456 87.2333C300.822 82.9904 307.572 70.865 305.187 60.1331Z" fill="white"/>
<path fill-rule="evenodd" clip-rule="evenodd" d="M297.477 61.9809C297.265 67.7628 292.611 72.1304 286.918 71.8809C281.322 71.6313 277.014 66.8893 277.226 61.1073C277.437 55.679 282.072 51.3113 287.765 51.5609C293.38 51.8105 297.688 56.5525 297.477 61.9809Z" fill="#1D1E1D"/>
<path fill-rule="evenodd" clip-rule="evenodd" d="M290.243 51.8105C286.839 51.6649 283.993 54.2023 283.858 57.4677C283.743 60.733 286.397 63.52 289.801 63.6656C293.205 63.8111 296.051 61.2738 296.186 58.0084C296.301 54.7431 293.647 51.9561 290.243 51.8105Z" fill="white"/>
<path fill-rule="evenodd" clip-rule="evenodd" d="M120.005 99.7752C113.101 102.937 105.62 102.937 99.4849 99.7544C93.8115 96.8011 89.7151 91.4767 87.965 84.7173C84.4648 71.2608 92.1768 55.3917 105.178 49.3394C112.159 46.1572 119.698 46.1572 125.871 49.381C131.487 52.2927 135.525 57.5131 137.237 64.0646C140.814 77.7082 133.083 93.7437 120.005 99.7752Z" fill="#1D1E1D"/>
<path fill-rule="evenodd" clip-rule="evenodd" d="M132.295 64.8957C129.449 53.9974 118.409 48.9642 107.447 53.9974C96.812 58.9474 90.2155 71.8839 93.0618 82.7822C95.9851 94.0341 106.947 99.0465 117.909 94.0341C128.622 89.0841 135.218 76.0436 132.295 64.8957Z" fill="white"/>
<path fill-rule="evenodd" clip-rule="evenodd" d="M124.873 66.9742C124.873 72.7561 120.392 77.3109 114.7 77.3109C109.103 77.3109 104.622 72.7561 104.622 66.9742C104.622 61.5458 109.103 56.9702 114.796 56.9702C120.392 56.9702 124.873 61.525 124.873 66.9742Z" fill="#1D1E1D"/>
<path fill-rule="evenodd" clip-rule="evenodd" d="M117.275 57.1148C113.871 57.1148 111.101 59.777 111.101 63.0423C111.101 66.3077 113.851 68.9698 117.275 68.9698C120.679 68.9698 123.448 66.3077 123.448 63.0423C123.448 59.777 120.679 57.1148 117.275 57.1148Z" fill="white"/>
<path fill-rule="evenodd" clip-rule="evenodd" d="M81.9074 79.6842C96.7544 67.8916 103.832 50.0674 98.466 36.6941C96.1197 30.8498 92.0041 26.0246 86.9653 22.9881C83.4267 20.4507 79.2149 18.8492 74.7916 18.3084C63.9448 16.2494 50.9248 18.3708 38.1164 24.2568C33.4046 26.4198 29.0005 28.9156 25.0387 31.6402L20 35.0719L23.0194 40.6042L32.4046 57.7628C32.4046 57.7628 35.2893 63.0456 35.3086 63.0248L40.405 60.3418L41.1166 59.9674L64.4448 116.31L66.695 121.718L71.926 119.908L84.5614 115.54L90.1001 113.627L88.6385 107.554L81.9074 79.6842Z" fill="#1D1E1D"/>
<path fill-rule="evenodd" clip-rule="evenodd" d="M92.8272 39.3327C90.9617 34.6947 87.75 31.055 83.5574 28.4968C80.5188 26.313 76.9993 25.2315 73.7107 24.8363C64.364 23.0685 52.7287 24.7323 40.478 30.3479C36.1124 32.3445 32.0352 34.6323 28.285 37.2113L37.6702 54.3699C40.0742 53.1012 42.6705 51.7493 44.0744 50.9382L70.0182 113.562L82.6535 109.194L74.8646 76.7904C89.8078 66.8697 97.3466 50.5846 92.8272 39.3327Z" fill="white"/>
<path fill-rule="evenodd" clip-rule="evenodd" d="M225.552 55.8072L216.667 47.1551L221.033 42.1427L224.956 37.6295L221.341 32.8251C214.282 23.4242 202.993 19.6597 191.146 22.7587C174.665 27.0431 165.376 42.3923 169.049 59.2181C170.53 65.9983 174.453 71.801 180.127 75.5655C186.896 80.0788 195.416 81.3059 204.09 79.0389C213.244 76.647 219.975 72.633 225.879 66.0399L230.61 60.7572L225.552 55.8072Z" fill="#1D1E1D"/>
<path fill-rule="evenodd" clip-rule="evenodd" d="M211.893 51.7095C209.662 54.5588 207.104 57.1586 202.565 58.3441C201.046 58.7393 198.988 59.1137 197.68 58.8641L216.777 36.8803C211.393 29.7049 202.546 26.3772 192.526 28.9977C180.064 32.2423 171.64 43.4734 174.756 57.7826C177.256 69.284 189.026 76.3347 202.68 72.7781C210.95 70.6151 216.701 67.1626 221.855 61.4015L211.893 51.7095Z" fill="white"/>
<path fill-rule="evenodd" clip-rule="evenodd" d="M182.067 19.1384L205.453 -10L218.396 10.9023L188.836 28.0817L182.067 19.1384Z" fill="#1D1E1D"/>
<path fill-rule="evenodd" clip-rule="evenodd" d="M204.451 -0.724792L211.298 9.34158L191.739 19.8239L190.373 17.5985L204.451 -0.724792Z" fill="white"/>
<path fill-rule="evenodd" clip-rule="evenodd" d="M189.955 52.0403C188.552 49.2741 188.821 45.7176 190.917 43.2426C192.936 40.8508 196.013 40.1644 198.648 41.2667L189.955 52.0403ZM190.917 43.2426C188.84 45.7176 188.552 49.2741 189.955 52.0403L198.648 41.2667C196.013 40.1644 192.917 40.8508 190.917 43.2426ZM203.475 39.6445C199.014 35.256 192.129 35.6096 188.071 40.4348C184.013 45.26 184.34 52.7058 188.802 57.0942C189.167 57.4686 189.571 57.7806 189.975 58.0718L204.264 40.4764C203.995 40.1852 203.745 39.9149 203.475 39.6445ZM189.955 52.0403C188.552 49.2741 188.821 45.7176 190.917 43.2426C192.936 40.8508 196.013 40.1644 198.648 41.2667L189.955 52.0403Z" fill="#1D1E1D"/>
<path fill-rule="evenodd" clip-rule="evenodd" d="M83.0047 50.0449C81.8892 43.4102 73.908 39.6874 65.9075 44.3254L67.9076 51.9375L71.0617 63.1686L72.5041 68.285C78.5044 64.1877 84.5432 59.2377 83.0047 50.0449ZM75.0619 60.1945C74.1965 57.1163 72.331 50.4817 72.331 50.4817C72.3502 50.5233 71.9463 49.0466 71.5232 47.4035C73.2156 47.0707 74.8311 47.2371 76.1773 47.9443C76.9274 48.3394 78.2159 49.2338 78.4852 50.9392C79.1198 54.7453 77.9082 57.4699 75.0619 60.1945Z" fill="#1D1E1D"/>
<path fill-rule="evenodd" clip-rule="evenodd" d="M86.4318 125.772C86.4511 125.835 86.4703 125.876 86.4895 125.939C86.4895 125.96 86.5087 125.98 86.5087 126.001C86.4895 125.918 86.4511 125.856 86.4318 125.772Z" fill="#1D1E1D"/>
</svg>
